<svg xmlns="http://www.w3.org/2000/svg" viewBox="0 0 64 64" width="64" height="64" fill="none">
  <defs>
    <linearGradient id="rc-stem" x1="14" y1="14" x2="23" y2="50" gradientUnits="userSpaceOnUse">
      <stop offset="0%" stop-color="#818cf8"/>
      <stop offset="100%" stop-color="#4f46e5"/>
    </linearGradient>
    <linearGradient id="rc-loop" x1="23" y1="14" x2="48" y2="38" gradientUnits="userSpaceOnUse">
      <stop offset="0%" stop-color="#6366f1"/>
      <stop offset="45%" stop-color="#06b6d4"/>
      <stop offset="100%" stop-color="#10b981"/>
    </linearGradient>
    <linearGradient id="rc-surge" x1="30" y1="34" x2="50" y2="50" gradientUnits="userSpaceOnUse">
      <stop offset="0%" stop-color="#38bdf8"/>
      <stop offset="100%" stop-color="#10b981"/>
    </linearGradient>
  </defs>
  <!-- Obsidian Squircle Tile -->
  <rect width="64" height="64" rx="16" fill="#080d1a" stroke="rgba(255, 255, 255, 0.12)" stroke-width="2"/>
  <rect x="2" y="2" width="60" height="60" rx="14" fill="url(#rc-loop)" opacity="0.08"/>
  
  <!-- Left Pillar / Stem -->
  <rect x="14" y="14" width="9" height="36" rx="4.5" fill="url(#rc-stem)"/>
  
  <!-- Upper Loop -->
  <path d="M 23 14 L 36 14 C 42.63 14 48 19.37 48 26 C 48 32.63 42.63 38 36 38 L 23 38 Z M 30 21.5 L 30 30.5 L 36 30.5 C 38.49 30.5 40.5 28.49 40.5 26 C 40.5 23.51 38.49 21.5 36 21.5 Z" fill="url(#rc-loop)"/>
  
  <!-- Razor Surge Leg (Trajectory) -->
  <path d="M 30 34 L 39 34 L 50 50 L 41 50 Z" fill="url(#rc-surge)"/>
</svg>